<svg width="203" height="51" viewBox="0 0 203 51" fill="none" xmlns="http://www.w3.org/2000/svg">
<path d="M74.814 18.322C74.814 16.826 75.1587 15.484 75.848 14.296C76.552 13.108 77.498 12.184 78.686 11.524C79.8887 10.8493 81.2013 10.512 82.624 10.512C84.252 10.512 85.6967 10.9153 86.958 11.722C88.234 12.514 89.158 13.6433 89.73 15.11H86.716C86.32 14.3033 85.77 13.702 85.066 13.306C84.362 12.91 83.548 12.712 82.624 12.712C81.612 12.712 80.71 12.9393 79.918 13.394C79.126 13.8487 78.5027 14.5013 78.048 15.352C77.608 16.2027 77.388 17.1927 77.388 18.322C77.388 19.4513 77.608 20.4413 78.048 21.292C78.5027 22.1427 79.126 22.8027 79.918 23.272C80.71 23.7267 81.612 23.954 82.624 23.954C83.548 23.954 84.362 23.756 85.066 23.36C85.77 22.964 86.32 22.3627 86.716 21.556H89.73C89.158 23.0227 88.234 24.152 86.958 24.944C85.6967 25.736 84.252 26.132 82.624 26.132C81.1867 26.132 79.874 25.802 78.686 25.142C77.498 24.4673 76.552 23.536 75.848 22.348C75.1587 21.16 74.814 19.818 74.814 18.322ZM91.1696 19.884C91.1696 18.6667 91.419 17.5887 91.9176 16.65C92.431 15.7113 93.1203 14.9853 93.9856 14.472C94.8656 13.944 95.8336 13.68 96.8896 13.68C97.843 13.68 98.6716 13.8707 99.3756 14.252C100.094 14.6187 100.666 15.0807 101.092 15.638V13.878H103.622V26H101.092V24.196C100.666 24.768 100.087 25.2447 99.3536 25.626C98.6203 26.0073 97.7843 26.198 96.8456 26.198C95.8043 26.198 94.851 25.934 93.9856 25.406C93.1203 24.8633 92.431 24.1153 91.9176 23.162C91.419 22.194 91.1696 21.1013 91.1696 19.884ZM101.092 19.928C101.092 19.092 100.916 18.366 100.564 17.75C100.226 17.134 99.779 16.6647 99.2216 16.342C98.6643 16.0193 98.063 15.858 97.4176 15.858C96.7723 15.858 96.171 16.0193 95.6136 16.342C95.0563 16.65 94.6016 17.112 94.2496 17.728C93.9123 18.3293 93.7436 19.048 93.7436 19.884C93.7436 20.72 93.9123 21.4533 94.2496 22.084C94.6016 22.7147 95.0563 23.1987 95.6136 23.536C96.1856 23.8587 96.787 24.02 97.4176 24.02C98.063 24.02 98.6643 23.8587 99.2216 23.536C99.779 23.2133 100.226 22.744 100.564 22.128C100.916 21.4973 101.092 20.764 101.092 19.928ZM107.532 12.272C107.077 12.272 106.696 12.118 106.388 11.81C106.08 11.502 105.926 11.1207 105.926 10.666C105.926 10.2113 106.08 9.83 106.388 9.522C106.696 9.214 107.077 9.06 107.532 9.06C107.972 9.06 108.346 9.214 108.654 9.522C108.962 9.83 109.116 10.2113 109.116 10.666C109.116 11.1207 108.962 11.502 108.654 11.81C108.346 12.118 107.972 12.272 107.532 12.272ZM108.764 13.878V26H106.256V13.878H108.764ZM116.655 26.198C115.511 26.198 114.477 25.9413 113.553 25.428C112.629 24.9 111.903 24.1667 111.375 23.228C110.847 22.2747 110.583 21.1747 110.583 19.928C110.583 18.696 110.854 17.6033 111.397 16.65C111.939 15.6967 112.68 14.9633 113.619 14.45C114.557 13.9367 115.606 13.68 116.765 13.68C117.923 13.68 118.972 13.9367 119.911 14.45C120.849 14.9633 121.59 15.6967 122.133 16.65C122.675 17.6033 122.947 18.696 122.947 19.928C122.947 21.16 122.668 22.2527 122.111 23.206C121.553 24.1593 120.791 24.9 119.823 25.428C118.869 25.9413 117.813 26.198 116.655 26.198ZM116.655 24.02C117.3 24.02 117.901 23.866 118.459 23.558C119.031 23.25 119.493 22.788 119.845 22.172C120.197 21.556 120.373 20.808 120.373 19.928C120.373 19.048 120.204 18.3073 119.867 17.706C119.529 17.09 119.082 16.628 118.525 16.32C117.967 16.012 117.366 15.858 116.721 15.858C116.075 15.858 115.474 16.012 114.917 16.32C114.374 16.628 113.941 17.09 113.619 17.706C113.296 18.3073 113.135 19.048 113.135 19.928C113.135 21.2333 113.465 22.2453 114.125 22.964C114.799 23.668 115.643 24.02 116.655 24.02Z" fill="url(#paint0_linear_101_2)"/>
<path d="M75.848 14.296L74.9877 13.7862L74.9831 13.7941L75.848 14.296ZM78.686 11.524L79.1716 12.3982L79.1753 12.3961L78.686 11.524ZM86.958 11.722L86.4192 12.5645L86.4306 12.5716L86.958 11.722ZM89.73 15.11V16.11H91.1934L90.6617 14.7467L89.73 15.11ZM86.716 15.11L85.8183 15.5507L86.0929 16.11H86.716V15.11ZM85.066 13.306L85.5563 12.4344L85.066 13.306ZM79.918 13.394L80.4159 14.2613L80.4159 14.2613L79.918 13.394ZM78.048 15.352L77.166 14.8806L77.1598 14.8926L78.048 15.352ZM78.048 21.292L77.1597 21.7515L77.1661 21.7634L78.048 21.292ZM79.918 23.272L79.4081 24.1324L79.4201 24.1393L79.918 23.272ZM85.066 23.36L85.5563 24.2316L85.066 23.36ZM86.716 21.556V20.556H86.0929L85.8183 21.1153L86.716 21.556ZM89.73 21.556L90.6617 21.9193L91.1934 20.556H89.73V21.556ZM86.958 24.944L86.4306 24.0943L86.4262 24.0971L86.958 24.944ZM78.686 25.142L78.1922 26.0116L78.2004 26.0162L78.686 25.142ZM75.848 22.348L74.983 22.8499L74.9877 22.8578L75.848 22.348ZM75.814 18.322C75.814 16.9861 76.1199 15.82 76.7129 14.7979L74.9831 13.7941C74.1975 15.148 73.814 16.6659 73.814 18.322H75.814ZM76.7083 14.8058C77.3234 13.7677 78.1412 12.9706 79.1716 12.3982L78.2004 10.6498C76.8548 11.3974 75.7806 12.4483 74.9877 13.7862L76.7083 14.8058ZM79.1753 12.3961C80.2236 11.808 81.367 11.512 82.624 11.512V9.512C81.0356 9.512 79.5537 9.89063 78.1967 10.6519L79.1753 12.3961ZM82.624 11.512C84.0784 11.512 85.3328 11.8696 86.4192 12.5644L87.4968 10.8795C86.0606 9.96104 84.4256 9.512 82.624 9.512V11.512ZM86.4306 12.5716C87.5136 13.2438 88.3009 14.1978 88.7983 15.4733L90.6617 14.7467C90.0151 13.0888 88.9544 11.7842 87.4854 10.8724L86.4306 12.5716ZM89.73 14.11H86.716V16.11H89.73V14.11ZM87.6137 14.6693C87.139 13.7024 86.4561 12.9406 85.5563 12.4344L84.5757 14.1776C85.0839 14.4634 85.501 14.9043 85.8183 15.5507L87.6137 14.6693ZM85.5563 12.4344C84.6822 11.9427 83.6947 11.712 82.624 11.712V13.712C83.4013 13.712 84.0418 13.8773 84.5757 14.1776L85.5563 12.4344ZM82.624 11.712C81.4567 11.712 80.3796 11.9759 79.4201 12.5267L80.4159 14.2613C81.0404 13.9027 81.7673 13.712 82.624 13.712V11.712ZM79.4201 12.5267C78.4562 13.0801 77.7039 13.8743 77.1661 14.8806L78.9299 15.8234C79.3014 15.1283 79.7958 14.6172 80.4159 14.2613L79.4201 12.5267ZM77.1598 14.8926C76.6342 15.9086 76.388 17.0614 76.388 18.322H78.388C78.388 17.324 78.5818 16.4967 78.9362 15.8114L77.1598 14.8926ZM76.388 18.322C76.388 19.5826 76.6342 20.7354 77.1598 21.7514L78.9362 20.8326C78.5818 20.1473 78.388 19.32 78.388 18.322H76.388ZM77.1661 21.7634C77.7026 22.7672 78.4513 23.5652 79.4082 24.1323L80.4278 22.4117C79.8007 22.0401 79.3027 21.5181 78.9299 20.8206L77.1661 21.7634ZM79.4201 24.1393C80.3796 24.6901 81.4567 24.954 82.624 24.954V22.954C81.7673 22.954 81.0404 22.7633 80.4159 22.4047L79.4201 24.1393ZM82.624 24.954C83.6947 24.954 84.6822 24.7233 85.5563 24.2316L84.5757 22.4884C84.0418 22.7887 83.4013 22.954 82.624 22.954V24.954ZM85.5563 24.2316C86.4561 23.7254 87.139 22.9636 87.6137 21.9967L85.8183 21.1153C85.501 21.7617 85.0839 22.2026 84.5757 22.4884L85.5563 24.2316ZM86.716 22.556H89.73V20.556H86.716V22.556ZM88.7983 21.1927C88.3009 22.4682 87.5136 23.4222 86.4306 24.0944L87.4854 25.7936C88.9544 24.8818 90.0151 23.5772 90.6617 21.9193L88.7983 21.1927ZM86.4262 24.0971C85.3389 24.7798 84.082 25.132 82.624 25.132V27.132C84.422 27.132 86.0544 26.6922 87.4898 25.7909L86.4262 24.0971ZM82.624 25.132C81.3465 25.132 80.2025 24.8405 79.1716 24.2678L78.2004 26.0162C79.5455 26.7635 81.0269 27.132 82.624 27.132V25.132ZM79.1798 24.2724C78.1449 23.6847 77.3245 22.8781 76.7083 21.8382L74.9877 22.8578C75.7795 24.1939 76.8511 25.25 78.1922 26.0116L79.1798 24.2724ZM76.7129 21.8461C76.1199 20.824 75.814 19.6579 75.814 18.322H73.814C73.814 19.9781 74.1975 21.496 74.9831 22.8499L76.7129 21.8461ZM91.9176 16.65L91.0402 16.1702L91.0345 16.1808L91.9176 16.65ZM93.9856 14.472L94.4958 15.3321L94.5001 15.3295L93.9856 14.472ZM99.3756 14.252L98.8993 15.1313L98.9102 15.1372L98.9212 15.1428L99.3756 14.252ZM101.092 15.638L100.297 16.2447L102.092 18.5967V15.638H101.092ZM101.092 13.878V12.878H100.092V13.878H101.092ZM103.622 13.878H104.622V12.878H103.622V13.878ZM103.622 26V27H104.622V26H103.622ZM101.092 26H100.092V27H101.092V26ZM101.092 24.196H102.092V21.1753L100.289 23.5993L101.092 24.196ZM99.3536 25.626L98.8923 24.7388L99.3536 25.626ZM93.9856 25.406L93.4543 26.2533L93.4648 26.2596L93.9856 25.406ZM91.9176 23.162L91.0287 23.62L91.0328 23.6281L91.0372 23.6361L91.9176 23.162ZM100.564 17.75L99.6865 18.2303L99.6909 18.2383L99.6954 18.2461L100.564 17.75ZM99.2216 16.342L98.7206 17.2074L99.2216 16.342ZM95.6136 16.342L96.0973 17.2172L96.106 17.2124L96.1147 17.2074L95.6136 16.342ZM94.2496 17.728L93.3814 17.2318L93.3775 17.2387L94.2496 17.728ZM94.2496 22.084L93.3678 22.5557L93.3721 22.5635L93.3764 22.5714L94.2496 22.084ZM95.6136 23.536L95.0958 24.3915L95.1089 24.3994L95.1223 24.407L95.6136 23.536ZM99.2216 23.536L99.7227 24.4014L99.2216 23.536ZM100.564 22.128L99.6904 21.6406L99.6865 21.6477L100.564 22.128ZM92.1696 19.884C92.1696 18.8063 92.3893 17.8936 92.8007 17.1192L91.0345 16.1808C90.4486 17.2838 90.1696 18.527 90.1696 19.884H92.1696ZM92.795 17.1298C93.2279 16.3382 93.7946 15.748 94.4958 15.3321L93.4754 13.6119C92.446 14.2226 91.634 15.0845 91.0403 16.1702L92.795 17.1298ZM94.5001 15.3295C95.22 14.8975 96.0094 14.68 96.8896 14.68V12.68C95.6579 12.68 94.5112 12.9905 93.4711 13.6145L94.5001 15.3295ZM96.8896 14.68C97.7083 14.68 98.3671 14.843 98.8993 15.1313L99.8519 13.3727C98.9761 12.8983 97.9776 12.68 96.8896 12.68V14.68ZM98.9212 15.1428C99.5266 15.4517 99.9749 15.823 100.297 16.2447L101.887 15.0313C101.358 14.3383 100.662 13.7857 99.8301 13.3612L98.9212 15.1428ZM102.092 15.638V13.878H100.092V15.638H102.092ZM101.092 14.878H103.622V12.878H101.092V14.878ZM102.622 13.878V26H104.622V13.878H102.622ZM103.622 25H101.092V27H103.622V25ZM102.092 26V24.196H100.092V26H102.092ZM100.289 23.5993C99.9674 24.0319 99.5128 24.4161 98.8923 24.7388L99.815 26.5132C100.661 26.0732 101.365 25.5041 101.894 24.7927L100.289 23.5993ZM98.8923 24.7388C98.3197 25.0365 97.6457 25.198 96.8456 25.198V27.198C97.9229 27.198 98.9208 26.9782 99.815 26.5132L98.8923 24.7388ZM96.8456 25.198C95.9828 25.198 95.2105 24.9819 94.5065 24.5524L93.4648 26.2596C94.4914 26.8861 95.6258 27.198 96.8456 27.198V25.198ZM94.5169 24.5588C93.8072 24.1137 93.2344 23.4982 92.7981 22.6879L91.0372 23.6361C91.6275 24.7324 92.4334 25.6129 93.4543 26.2532L94.5169 24.5588ZM92.8066 22.704C92.3891 21.8937 92.1696 20.9611 92.1696 19.884H90.1696C90.1696 21.2416 90.4488 22.4943 91.0287 23.62L92.8066 22.704ZM102.092 19.928C102.092 18.9492 101.884 18.0459 101.432 17.2539L99.6954 18.2461C99.9468 18.6861 100.092 19.2348 100.092 19.928H102.092ZM101.441 17.2697C101.024 16.5084 100.452 15.899 99.7227 15.4766L98.7206 17.2074C99.1055 17.4303 99.4288 17.7596 99.6865 18.2303L101.441 17.2697ZM99.7227 15.4766C99.0127 15.0656 98.2385 14.858 97.4176 14.858V16.858C97.8874 16.858 98.3159 16.9731 98.7206 17.2074L99.7227 15.4766ZM97.4176 14.858C96.5967 14.858 95.8225 15.0656 95.1126 15.4766L96.1147 17.2074C96.5194 16.9731 96.9479 16.858 97.4176 16.858V14.858ZM95.1299 15.4668C94.3942 15.8733 93.8137 16.4753 93.3814 17.2319L95.1179 18.2241C95.3896 17.7487 95.7184 17.4267 96.0973 17.2172L95.1299 15.4668ZM93.3775 17.2387C92.9402 18.0182 92.7436 18.9129 92.7436 19.884H94.7436C94.7436 19.1831 94.8844 18.6404 95.1218 18.2173L93.3775 17.2387ZM92.7436 19.884C92.7436 20.8567 92.9407 21.7572 93.3678 22.5557L95.1314 21.6123C94.8838 21.1495 94.7436 20.5833 94.7436 19.884H92.7436ZM93.3764 22.5714C93.8036 23.3366 94.3744 23.9549 95.0958 24.3915L96.1314 22.6805C95.7382 22.4425 95.3997 22.0927 95.1228 21.5966L93.3764 22.5714ZM95.1223 24.407C95.8378 24.8106 96.6076 25.02 97.4176 25.02V23.02C96.9664 23.02 96.5335 22.9067 96.1049 22.665L95.1223 24.407ZM97.4176 25.02C98.2385 25.02 99.0127 24.8124 99.7227 24.4014L98.7206 22.6706C98.3159 22.9049 97.8874 23.02 97.4176 23.02V25.02ZM99.7227 24.4014C100.452 23.979 101.024 23.3696 101.441 22.6083L99.6865 21.6477C99.4288 22.1184 99.1055 22.4477 98.7206 22.6706L99.7227 24.4014ZM101.437 22.6154C101.884 21.8137 102.092 20.9075 102.092 19.928H100.092C100.092 20.6205 99.947 21.181 99.6904 21.6406L101.437 22.6154ZM106.388 11.81L107.095 11.1029L107.095 11.1029L106.388 11.81ZM106.388 9.522L107.095 10.2291L107.095 10.2291L106.388 9.522ZM108.654 9.522L107.947 10.2291V10.2291L108.654 9.522ZM108.654 11.81L107.947 11.1029V11.1029L108.654 11.81ZM108.764 13.878H109.764V12.878H108.764V13.878ZM108.764 26V27H109.764V26H108.764ZM106.256 26H105.256V27H106.256V26ZM106.256 13.878V12.878H105.256V13.878H106.256ZM107.532 11.272C107.329 11.272 107.206 11.2144 107.095 11.1029L105.681 12.5171C106.185 13.0216 106.825 13.272 107.532 13.272V11.272ZM107.095 11.1029C106.983 10.9914 106.926 10.8684 106.926 10.666H104.926C104.926 11.3729 105.176 12.0126 105.681 12.5171L107.095 11.1029ZM106.926 10.666C106.926 10.4636 106.983 10.3406 107.095 10.2291L105.681 8.81489C105.176 9.31939 104.926 9.95907 104.926 10.666H106.926ZM107.095 10.2291C107.206 10.1176 107.329 10.06 107.532 10.06V8.06C106.825 8.06 106.185 8.31039 105.681 8.81489L107.095 10.2291ZM107.532 10.06C107.71 10.06 107.828 10.1108 107.947 10.2291L109.361 8.81489C108.863 8.31723 108.234 8.06 107.532 8.06V10.06ZM107.947 10.2291C108.058 10.3406 108.116 10.4636 108.116 10.666H110.116C110.116 9.95907 109.865 9.31939 109.361 8.81489L107.947 10.2291ZM108.116 10.666C108.116 10.8684 108.058 10.9914 107.947 11.1029L109.361 12.5171C109.865 12.0126 110.116 11.3729 110.116 10.666H108.116ZM107.947 11.1029C107.828 11.2212 107.71 11.272 107.532 11.272V13.272C108.234 13.272 108.863 13.0148 109.361 12.5171L107.947 11.1029ZM107.764 13.878V26H109.764V13.878H107.764ZM108.764 25H106.256V27H108.764V25ZM107.256 26V13.878H105.256V26H107.256ZM106.256 14.878H108.764V12.878H106.256V14.878ZM113.553 25.428L113.056 26.2963L113.067 26.3022L113.553 25.428ZM111.375 23.228L110.5 23.7125L110.503 23.7183L111.375 23.228ZM113.619 14.45L113.139 13.5726L113.619 14.45ZM119.911 14.45L120.39 13.5726L119.911 14.45ZM122.111 23.206L121.247 22.7013L122.111 23.206ZM119.823 25.428L120.297 26.3085L120.301 26.3059L119.823 25.428ZM118.459 23.558L117.984 22.6775L117.975 22.6828L118.459 23.558ZM119.845 22.172L118.976 21.6759L119.845 22.172ZM119.867 17.706L118.989 18.1863L118.994 18.1953L119.867 17.706ZM114.917 16.32L114.433 15.4447L114.423 15.4503L114.917 16.32ZM113.619 17.706L114.5 18.1788L114.504 18.17L113.619 17.706ZM114.125 22.964L113.388 23.6404L113.395 23.6482L113.403 23.6559L114.125 22.964ZM116.655 25.198C115.666 25.198 114.802 24.9779 114.038 24.5538L113.067 26.3022C114.152 26.9047 115.355 27.198 116.655 27.198V25.198ZM114.049 24.5598C113.284 24.1226 112.687 23.5208 112.246 22.7377L110.503 23.7183C111.119 24.8126 111.973 25.6774 113.056 26.2962L114.049 24.5598ZM112.249 22.7435C111.815 21.9586 111.583 21.0299 111.583 19.928H109.583C109.583 21.3195 109.878 22.5907 110.5 23.7125L112.249 22.7435ZM111.583 19.928C111.583 18.8477 111.819 17.9294 112.266 17.1447L110.528 16.1553C109.889 17.2772 109.583 18.5443 109.583 19.928H111.583ZM112.266 17.1447C112.719 16.3483 113.327 15.7494 114.098 15.3274L113.139 13.5726C112.033 14.1773 111.159 15.0451 110.528 16.1553L112.266 17.1447ZM114.098 15.3274C114.878 14.9011 115.759 14.68 116.765 14.68V12.68C115.453 12.68 114.237 12.9722 113.139 13.5726L114.098 15.3274ZM116.765 14.68C117.77 14.68 118.651 14.9011 119.431 15.3274L120.39 13.5726C119.293 12.9722 118.077 12.68 116.765 12.68V14.68ZM119.431 15.3274C120.202 15.7494 120.81 16.3483 121.264 17.1447L123.002 16.1553C122.37 15.0451 121.496 14.1773 120.39 13.5726L119.431 15.3274ZM121.264 17.1447C121.71 17.9294 121.947 18.8477 121.947 19.928H123.947C123.947 18.5443 123.64 17.2772 123.002 16.1553L121.264 17.1447ZM121.947 19.928C121.947 21.0036 121.705 21.9183 121.247 22.7013L122.974 23.7107C123.631 22.5871 123.947 21.3164 123.947 19.928H121.947ZM121.247 22.7013C120.782 23.4978 120.152 24.1094 119.344 24.5501L120.301 26.3059C121.429 25.6906 122.325 24.8208 122.974 23.7107L121.247 22.7013ZM119.348 24.5475C118.551 24.9769 117.66 25.198 116.655 25.198V27.198C117.967 27.198 119.187 26.9057 120.297 26.3085L119.348 24.5475ZM116.655 25.02C117.467 25.02 118.235 24.8242 118.942 24.4332L117.975 22.6828C117.568 22.9078 117.133 23.02 116.655 23.02V25.02ZM118.933 24.4385C119.684 24.0337 120.277 23.4311 120.713 22.6681L118.976 21.6759C118.708 22.1449 118.377 22.4663 117.984 22.6775L118.933 24.4385ZM120.713 22.6681C121.17 21.8688 121.373 20.9406 121.373 19.928H119.373C119.373 20.6754 119.224 21.2432 118.976 21.6759L120.713 22.6681ZM121.373 19.928C121.373 18.923 121.18 18.0033 120.739 17.2167L118.994 18.1953C119.228 18.6114 119.373 19.173 119.373 19.928H121.373ZM120.744 17.2257C120.325 16.4611 119.748 15.8538 119.008 15.4448L118.041 17.1952C118.415 17.4022 118.733 17.7189 118.989 18.1863L120.744 17.2257ZM119.008 15.4448C118.301 15.0538 117.533 14.858 116.721 14.858V16.858C117.199 16.858 117.634 16.9702 118.041 17.1952L119.008 15.4448ZM116.721 14.858C115.908 14.858 115.14 15.0538 114.433 15.4448L115.4 17.1952C115.807 16.9702 116.242 16.858 116.721 16.858V14.858ZM114.423 15.4503C113.695 15.8637 113.134 16.476 112.733 17.242L114.504 18.17C114.749 17.704 115.053 17.3923 115.41 17.1897L114.423 15.4503ZM112.737 17.2332C112.317 18.016 112.135 18.9294 112.135 19.928H114.135C114.135 19.1666 114.274 18.5987 114.5 18.1788L112.737 17.2332ZM112.135 19.928C112.135 21.3976 112.508 22.6823 113.388 23.6404L114.861 22.2876C114.421 21.8084 114.135 21.069 114.135 19.928H112.135ZM113.403 23.6559C114.274 24.5649 115.382 25.02 116.655 25.02V23.02C115.904 23.02 115.325 22.7711 114.847 22.2721L113.403 23.6559Z" fill="#274D62" fill-opacity="0.14"/>
<path d="M78.065 43.135C77.435 43.135 76.87 43.03 76.37 42.82C75.87 42.6 75.475 42.3 75.185 41.92C74.895 41.53 74.735 41.085 74.705 40.585H76.115C76.155 40.995 76.345 41.33 76.685 41.59C77.035 41.85 77.49 41.98 78.05 41.98C78.57 41.98 78.98 41.865 79.28 41.635C79.58 41.405 79.73 41.115 79.73 40.765C79.73 40.405 79.57 40.14 79.25 39.97C78.93 39.79 78.435 39.615 77.765 39.445C77.155 39.285 76.655 39.125 76.265 38.965C75.885 38.795 75.555 38.55 75.275 38.23C75.005 37.9 74.87 37.47 74.87 36.94C74.87 36.52 74.995 36.135 75.245 35.785C75.495 35.435 75.85 35.16 76.31 34.96C76.77 34.75 77.295 34.645 77.885 34.645C78.795 34.645 79.53 34.875 80.09 35.335C80.65 35.795 80.95 36.425 80.99 37.225H79.625C79.595 36.795 79.42 36.45 79.1 36.19C78.79 35.93 78.37 35.8 77.84 35.8C77.35 35.8 76.96 35.905 76.67 36.115C76.38 36.325 76.235 36.6 76.235 36.94C76.235 37.21 76.32 37.435 76.49 37.615C76.67 37.785 76.89 37.925 77.15 38.035C77.42 38.135 77.79 38.25 78.26 38.38C78.85 38.54 79.33 38.7 79.7 38.86C80.07 39.01 80.385 39.24 80.645 39.55C80.915 39.86 81.055 40.265 81.065 40.765C81.065 41.215 80.94 41.62 80.69 41.98C80.44 42.34 80.085 42.625 79.625 42.835C79.175 43.035 78.655 43.135 78.065 43.135ZM90.0419 38.575C90.0419 38.835 90.0269 39.11 89.9969 39.4H83.4269C83.4769 40.21 83.7519 40.845 84.2519 41.305C84.7619 41.755 85.3769 41.98 86.0969 41.98C86.6869 41.98 87.1769 41.845 87.5669 41.575C87.9669 41.295 88.2469 40.925 88.4069 40.465H89.8769C89.6569 41.255 89.2169 41.9 88.5569 42.4C87.8969 42.89 87.0769 43.135 86.0969 43.135C85.3169 43.135 84.6169 42.96 83.9969 42.61C83.3869 42.26 82.9069 41.765 82.5569 41.125C82.2069 40.475 82.0319 39.725 82.0319 38.875C82.0319 38.025 82.2019 37.28 82.5419 36.64C82.8819 36 83.3569 35.51 83.9669 35.17C84.5869 34.82 85.2969 34.645 86.0969 34.645C86.8769 34.645 87.5669 34.815 88.1669 35.155C88.7669 35.495 89.2269 35.965 89.5469 36.565C89.8769 37.155 90.0419 37.825 90.0419 38.575ZM88.6319 38.29C88.6319 37.77 88.5169 37.325 88.2869 36.955C88.0569 36.575 87.7419 36.29 87.3419 36.1C86.9519 35.9 86.5169 35.8 86.0369 35.8C85.3469 35.8 84.7569 36.02 84.2669 36.46C83.7869 36.9 83.5119 37.51 83.4419 38.29H88.6319ZM98.6837 34.78V43H97.3187V41.785C97.0587 42.205 96.6937 42.535 96.2237 42.775C95.7637 43.005 95.2537 43.12 94.6937 43.12C94.0537 43.12 93.4787 42.99 92.9687 42.73C92.4587 42.46 92.0537 42.06 91.7537 41.53C91.4637 41 91.3187 40.355 91.3187 39.595V34.78H92.6687V39.415C92.6687 40.225 92.8737 40.85 93.2837 41.29C93.6937 41.72 94.2537 41.935 94.9637 41.935C95.6937 41.935 96.2687 41.71 96.6887 41.26C97.1087 40.81 97.3187 40.155 97.3187 39.295V34.78H98.6837ZM103.577 38.86C103.577 38.02 103.747 37.285 104.087 36.655C104.427 36.015 104.892 35.52 105.482 35.17C106.082 34.82 106.747 34.645 107.477 34.645C108.197 34.645 108.822 34.8 109.352 35.11C109.882 35.42 110.277 35.81 110.537 36.28V34.78H111.917V43H110.537V41.47C110.267 41.95 109.862 42.35 109.322 42.67C108.792 42.98 108.172 43.135 107.462 43.135C106.732 43.135 106.072 42.955 105.482 42.595C104.892 42.235 104.427 41.73 104.087 41.08C103.747 40.43 103.577 39.69 103.577 38.86ZM110.537 38.875C110.537 38.255 110.412 37.715 110.162 37.255C109.912 36.795 109.572 36.445 109.142 36.205C108.722 35.955 108.257 35.83 107.747 35.83C107.237 35.83 106.772 35.95 106.352 36.19C105.932 36.43 105.597 36.78 105.347 37.24C105.097 37.7 104.972 38.24 104.972 38.86C104.972 39.49 105.097 40.04 105.347 40.51C105.597 40.97 105.932 41.325 106.352 41.575C106.772 41.815 107.237 41.935 107.747 41.935C108.257 41.935 108.722 41.815 109.142 41.575C109.572 41.325 109.912 40.97 110.162 40.51C110.412 40.04 110.537 39.495 110.537 38.875ZM123.659 34.63C124.299 34.63 124.869 34.765 125.369 35.035C125.869 35.295 126.264 35.69 126.554 36.22C126.844 36.75 126.989 37.395 126.989 38.155V43H125.639V38.35C125.639 37.53 125.434 36.905 125.024 36.475C124.624 36.035 124.079 35.815 123.389 35.815C122.679 35.815 122.114 36.045 121.694 36.505C121.274 36.955 121.064 37.61 121.064 38.47V43H119.714V38.35C119.714 37.53 119.509 36.905 119.099 36.475C118.699 36.035 118.154 35.815 117.464 35.815C116.754 35.815 116.189 36.045 115.769 36.505C115.349 36.955 115.139 37.61 115.139 38.47V43H113.774V34.78H115.139V35.965C115.409 35.535 115.769 35.205 116.219 34.975C116.679 34.745 117.184 34.63 117.734 34.63C118.424 34.63 119.034 34.785 119.564 35.095C120.094 35.405 120.489 35.86 120.749 36.46C120.979 35.88 121.359 35.43 121.889 35.11C122.419 34.79 123.009 34.63 123.659 34.63ZM129.483 33.445C129.223 33.445 129.003 33.355 128.823 33.175C128.643 32.995 128.553 32.775 128.553 32.515C128.553 32.255 128.643 32.035 128.823 31.855C129.003 31.675 129.223 31.585 129.483 31.585C129.733 31.585 129.943 31.675 130.113 31.855C130.293 32.035 130.383 32.255 130.383 32.515C130.383 32.775 130.293 32.995 130.113 33.175C129.943 33.355 129.733 33.445 129.483 33.445ZM130.143 34.78V43H128.778V34.78H130.143ZM135.41 34.645C136.12 34.645 136.74 34.8 137.27 35.11C137.81 35.42 138.21 35.81 138.47 36.28V34.78H139.85V43.18C139.85 43.93 139.69 44.595 139.37 45.175C139.05 45.765 138.59 46.225 137.99 46.555C137.4 46.885 136.71 47.05 135.92 47.05C134.84 47.05 133.94 46.795 133.22 46.285C132.5 45.775 132.075 45.08 131.945 44.2H133.295C133.445 44.7 133.755 45.1 134.225 45.4C134.695 45.71 135.26 45.865 135.92 45.865C136.67 45.865 137.28 45.63 137.75 45.16C138.23 44.69 138.47 44.03 138.47 43.18V41.455C138.2 41.935 137.8 42.335 137.27 42.655C136.74 42.975 136.12 43.135 135.41 43.135C134.68 43.135 134.015 42.955 133.415 42.595C132.825 42.235 132.36 41.73 132.02 41.08C131.68 40.43 131.51 39.69 131.51 38.86C131.51 38.02 131.68 37.285 132.02 36.655C132.36 36.015 132.825 35.52 133.415 35.17C134.015 34.82 134.68 34.645 135.41 34.645ZM138.47 38.875C138.47 38.255 138.345 37.715 138.095 37.255C137.845 36.795 137.505 36.445 137.075 36.205C136.655 35.955 136.19 35.83 135.68 35.83C135.17 35.83 134.705 35.95 134.285 36.19C133.865 36.43 133.53 36.78 133.28 37.24C133.03 37.7 132.905 38.24 132.905 38.86C132.905 39.49 133.03 40.04 133.28 40.51C133.53 40.97 133.865 41.325 134.285 41.575C134.705 41.815 135.17 41.935 135.68 41.935C136.19 41.935 136.655 41.815 137.075 41.575C137.505 41.325 137.845 40.97 138.095 40.51C138.345 40.04 138.47 39.495 138.47 38.875ZM145.291 43.135C144.521 43.135 143.821 42.96 143.191 42.61C142.571 42.26 142.081 41.765 141.721 41.125C141.371 40.475 141.196 39.725 141.196 38.875C141.196 38.035 141.376 37.295 141.736 36.655C142.106 36.005 142.606 35.51 143.236 35.17C143.866 34.82 144.571 34.645 145.351 34.645C146.131 34.645 146.836 34.82 147.466 35.17C148.096 35.51 148.591 36 148.951 36.64C149.321 37.28 149.506 38.025 149.506 38.875C149.506 39.725 149.316 40.475 148.936 41.125C148.566 41.765 148.061 42.26 147.421 42.61C146.781 42.96 146.071 43.135 145.291 43.135ZM145.291 41.935C145.781 41.935 146.241 41.82 146.671 41.59C147.101 41.36 147.446 41.015 147.706 40.555C147.976 40.095 148.111 39.535 148.111 38.875C148.111 38.215 147.981 37.655 147.721 37.195C147.461 36.735 147.121 36.395 146.701 36.175C146.281 35.945 145.826 35.83 145.336 35.83C144.836 35.83 144.376 35.945 143.956 36.175C143.546 36.395 143.216 36.735 142.966 37.195C142.716 37.655 142.591 38.215 142.591 38.875C142.591 39.545 142.711 40.11 142.951 40.57C143.201 41.03 143.531 41.375 143.941 41.605C144.351 41.825 144.801 41.935 145.291 41.935ZM153.89 38.86C153.89 38.02 154.06 37.285 154.4 36.655C154.74 36.015 155.205 35.52 155.795 35.17C156.395 34.82 157.06 34.645 157.79 34.645C158.51 34.645 159.135 34.8 159.665 35.11C160.195 35.42 160.59 35.81 160.85 36.28V34.78H162.23V43H160.85V41.47C160.58 41.95 160.175 42.35 159.635 42.67C159.105 42.98 158.485 43.135 157.775 43.135C157.045 43.135 156.385 42.955 155.795 42.595C155.205 42.235 154.74 41.73 154.4 41.08C154.06 40.43 153.89 39.69 153.89 38.86ZM160.85 38.875C160.85 38.255 160.725 37.715 160.475 37.255C160.225 36.795 159.885 36.445 159.455 36.205C159.035 35.955 158.57 35.83 158.06 35.83C157.55 35.83 157.085 35.95 156.665 36.19C156.245 36.43 155.91 36.78 155.66 37.24C155.41 37.7 155.285 38.24 155.285 38.86C155.285 39.49 155.41 40.04 155.66 40.51C155.91 40.97 156.245 41.325 156.665 41.575C157.085 41.815 157.55 41.935 158.06 41.935C158.57 41.935 159.035 41.815 159.455 41.575C159.885 41.325 160.225 40.97 160.475 40.51C160.725 40.04 160.85 39.495 160.85 38.875ZM171.377 34.78V43H170.012V41.785C169.752 42.205 169.387 42.535 168.917 42.775C168.457 43.005 167.947 43.12 167.387 43.12C166.747 43.12 166.172 42.99 165.662 42.73C165.152 42.46 164.747 42.06 164.447 41.53C164.157 41 164.012 40.355 164.012 39.595V34.78H165.362V39.415C165.362 40.225 165.567 40.85 165.977 41.29C166.387 41.72 166.947 41.935 167.657 41.935C168.387 41.935 168.962 41.71 169.382 41.26C169.802 40.81 170.012 40.155 170.012 39.295V34.78H171.377ZM174.897 35.905V40.75C174.897 41.15 174.982 41.435 175.152 41.605C175.322 41.765 175.617 41.845 176.037 41.845H177.042V43H175.812C175.052 43 174.482 42.825 174.102 42.475C173.722 42.125 173.532 41.55 173.532 40.75V35.905H172.467V34.78H173.532V32.71H174.897V34.78H177.042V35.905H174.897ZM178.95 33.445C178.69 33.445 178.47 33.355 178.29 33.175C178.11 32.995 178.02 32.775 178.02 32.515C178.02 32.255 178.11 32.035 178.29 31.855C178.47 31.675 178.69 31.585 178.95 31.585C179.2 31.585 179.41 31.675 179.58 31.855C179.76 32.035 179.85 32.255 179.85 32.515C179.85 32.775 179.76 32.995 179.58 33.175C179.41 33.355 179.2 33.445 178.95 33.445ZM179.61 34.78V43H178.245V34.78H179.61ZM184.397 43.135C183.767 43.135 183.202 43.03 182.702 42.82C182.202 42.6 181.807 42.3 181.517 41.92C181.227 41.53 181.067 41.085 181.037 40.585H182.447C182.487 40.995 182.677 41.33 183.017 41.59C183.367 41.85 183.822 41.98 184.382 41.98C184.902 41.98 185.312 41.865 185.612 41.635C185.912 41.405 186.062 41.115 186.062 40.765C186.062 40.405 185.902 40.14 185.582 39.97C185.262 39.79 184.767 39.615 184.097 39.445C183.487 39.285 182.987 39.125 182.597 38.965C182.217 38.795 181.887 38.55 181.607 38.23C181.337 37.9 181.202 37.47 181.202 36.94C181.202 36.52 181.327 36.135 181.577 35.785C181.827 35.435 182.182 35.16 182.642 34.96C183.102 34.75 183.627 34.645 184.217 34.645C185.127 34.645 185.862 34.875 186.422 35.335C186.982 35.795 187.282 36.425 187.322 37.225H185.957C185.927 36.795 185.752 36.45 185.432 36.19C185.122 35.93 184.702 35.8 184.172 35.8C183.682 35.8 183.292 35.905 183.002 36.115C182.712 36.325 182.567 36.6 182.567 36.94C182.567 37.21 182.652 37.435 182.822 37.615C183.002 37.785 183.222 37.925 183.482 38.035C183.752 38.135 184.122 38.25 184.592 38.38C185.182 38.54 185.662 38.7 186.032 38.86C186.402 39.01 186.717 39.24 186.977 39.55C187.247 39.86 187.387 40.265 187.397 40.765C187.397 41.215 187.272 41.62 187.022 41.98C186.772 42.34 186.417 42.625 185.957 42.835C185.507 43.035 184.987 43.135 184.397 43.135ZM190.539 35.905V40.75C190.539 41.15 190.624 41.435 190.794 41.605C190.964 41.765 191.259 41.845 191.679 41.845H192.684V43H191.454C190.694 43 190.124 42.825 189.744 42.475C189.364 42.125 189.174 41.55 189.174 40.75V35.905H188.109V34.78H189.174V32.71H190.539V34.78H192.684V35.905H190.539ZM193.378 38.86C193.378 38.02 193.548 37.285 193.888 36.655C194.228 36.015 194.693 35.52 195.283 35.17C195.883 34.82 196.548 34.645 197.278 34.645C197.998 34.645 198.623 34.8 199.153 35.11C199.683 35.42 200.078 35.81 200.338 36.28V34.78H201.718V43H200.338V41.47C200.068 41.95 199.663 42.35 199.123 42.67C198.593 42.98 197.973 43.135 197.263 43.135C196.533 43.135 195.873 42.955 195.283 42.595C194.693 42.235 194.228 41.73 193.888 41.08C193.548 40.43 193.378 39.69 193.378 38.86ZM200.338 38.875C200.338 38.255 200.213 37.715 199.963 37.255C199.713 36.795 199.373 36.445 198.943 36.205C198.523 35.955 198.058 35.83 197.548 35.83C197.038 35.83 196.573 35.95 196.153 36.19C195.733 36.43 195.398 36.78 195.148 37.24C194.898 37.7 194.773 38.24 194.773 38.86C194.773 39.49 194.898 40.04 195.148 40.51C195.398 40.97 195.733 41.325 196.153 41.575C196.573 41.815 197.038 41.935 197.548 41.935C198.058 41.935 198.523 41.815 198.943 41.575C199.373 41.325 199.713 40.97 199.963 40.51C200.213 40.04 200.338 39.495 200.338 38.875Z" fill="#9198A1"/>
<mask id="path-4-inside-1_101_2" fill="white">
<path fill-rule="evenodd" clip-rule="evenodd" d="M50.0916 25.0459L50.0917 25.0458C50.0917 11.2134 38.8783 0 25.0458 0C11.2134 0 0 11.2134 0 25.0458C0 38.8783 11.2134 50.0917 25.0458 50.0917C27.7448 50.0917 30.3441 49.6648 32.7799 48.8748C33.9218 48.5044 33.2591 46.7341 32.0586 46.7341C20.3957 46.7341 10.941 37.2794 10.941 25.6165C10.941 25.2989 11.2017 25.0459 11.5193 25.0459H19.3086C17.935 23.9684 17.0525 22.2934 17.0525 20.4122C17.0525 17.1616 19.6876 14.5265 22.9383 14.5265C26.1889 14.5265 28.824 17.1616 28.824 20.4122C28.824 22.2934 27.9415 23.9684 26.5679 25.0459H36.068C34.6944 23.9684 33.8119 22.2934 33.8119 20.4122C33.8119 17.1616 36.447 14.5265 39.6977 14.5265C42.9483 14.5265 45.5834 17.1616 45.5834 20.4122C45.5834 22.2934 44.7009 23.9684 43.3274 25.0459H50.0916Z"/>
</mask>
<path fill-rule="evenodd" clip-rule="evenodd" d="M50.0916 25.0459L50.0917 25.0458C50.0917 11.2134 38.8783 0 25.0458 0C11.2134 0 0 11.2134 0 25.0458C0 38.8783 11.2134 50.0917 25.0458 50.0917C27.7448 50.0917 30.3441 49.6648 32.7799 48.8748C33.9218 48.5044 33.2591 46.7341 32.0586 46.7341C20.3957 46.7341 10.941 37.2794 10.941 25.6165C10.941 25.2989 11.2017 25.0459 11.5193 25.0459H19.3086C17.935 23.9684 17.0525 22.2934 17.0525 20.4122C17.0525 17.1616 19.6876 14.5265 22.9383 14.5265C26.1889 14.5265 28.824 17.1616 28.824 20.4122C28.824 22.2934 27.9415 23.9684 26.5679 25.0459H36.068C34.6944 23.9684 33.8119 22.2934 33.8119 20.4122C33.8119 17.1616 36.447 14.5265 39.6977 14.5265C42.9483 14.5265 45.5834 17.1616 45.5834 20.4122C45.5834 22.2934 44.7009 23.9684 43.3274 25.0459H50.0916Z" fill="url(#paint1_linear_101_2)"/>
<path d="M50.0917 25.0458L50.7988 25.753L51.0917 25.4601V25.0458H50.0917ZM50.0916 25.0459V26.0459H50.5059L50.7988 25.753L50.0916 25.0459ZM32.7799 48.8748L33.0884 49.826L33.0884 49.826L32.7799 48.8748ZM32.0586 46.7341V45.7341V46.7341ZM10.941 25.6165H9.94103H10.941ZM19.3086 25.0459V26.0459H22.2036L19.9258 24.2591L19.3086 25.0459ZM26.5679 25.0459L25.9508 24.2591L23.6729 26.0459H26.5679V25.0459ZM36.068 25.0459V26.0459H38.963L36.6852 24.2591L36.068 25.0459ZM43.3274 25.0459L42.7102 24.2591L40.4323 26.0459H43.3274V25.0459ZM49.3846 24.3387L49.3845 24.3388L50.7988 25.753L50.7988 25.753L49.3846 24.3387ZM25.0458 1C38.326 1 49.0917 11.7657 49.0917 25.0458H51.0917C51.0917 10.6611 39.4306 -1 25.0458 -1V1ZM1 25.0458C1 11.7657 11.7657 1 25.0458 1V-1C10.6611 -1 -1 10.6611 -1 25.0458H1ZM25.0458 49.0917C11.7657 49.0917 1 38.326 1 25.0458H-1C-1 39.4306 10.6611 51.0917 25.0458 51.0917V49.0917ZM32.4714 47.9236C30.1341 48.6816 27.6388 49.0917 25.0458 49.0917V51.0917C27.8509 51.0917 30.5542 50.6479 33.0884 49.826L32.4714 47.9236ZM32.0586 47.7341C32.1027 47.7341 32.1527 47.7482 32.2108 47.7951C32.2751 47.8469 32.3282 47.9237 32.3549 47.9991C32.3835 48.0799 32.3603 48.0906 32.3785 48.0408C32.3892 48.0114 32.4098 47.9774 32.4395 47.9493C32.4688 47.9216 32.4872 47.9184 32.4714 47.9236L33.0884 49.826C33.6516 49.6433 34.0665 49.2485 34.257 48.7273C34.4346 48.2414 34.3848 47.7401 34.2404 47.332C33.9619 46.545 33.1808 45.7341 32.0586 45.7341V47.7341ZM9.94103 25.6165C9.94103 37.8317 19.8434 47.7341 32.0586 47.7341V45.7341C20.948 45.7341 11.941 36.7272 11.941 25.6165H9.94103ZM11.5193 24.0459C10.6668 24.0459 9.94103 24.7294 9.94103 25.6165H11.941C11.941 25.8684 11.7366 26.0459 11.5193 26.0459V24.0459ZM19.3086 24.0459H11.5193V26.0459H19.3086V24.0459ZM19.9258 24.2591C18.7834 23.363 18.0525 21.9733 18.0525 20.4122H16.0525C16.0525 22.6135 17.0865 24.5738 18.6914 25.8327L19.9258 24.2591ZM18.0525 20.4122C18.0525 17.7139 20.2399 15.5265 22.9383 15.5265V13.5265C19.1354 13.5265 16.0525 16.6093 16.0525 20.4122H18.0525ZM22.9383 15.5265C25.6366 15.5265 27.824 17.7139 27.824 20.4122H29.824C29.824 16.6093 26.7412 13.5265 22.9383 13.5265V15.5265ZM27.824 20.4122C27.824 21.9733 27.0931 23.363 25.9508 24.2591L27.1851 25.8327C28.79 24.5738 29.824 22.6135 29.824 20.4122H27.824ZM36.068 24.0459H26.5679V26.0459H36.068V24.0459ZM32.8119 20.4122C32.8119 22.6135 33.8459 24.5738 35.4508 25.8327L36.6852 24.2591C35.5428 23.363 34.8119 21.9733 34.8119 20.4122H32.8119ZM39.6977 13.5265C35.8948 13.5265 32.8119 16.6093 32.8119 20.4122H34.8119C34.8119 17.7139 36.9993 15.5265 39.6977 15.5265V13.5265ZM46.5834 20.4122C46.5834 16.6093 43.5006 13.5265 39.6977 13.5265V15.5265C42.396 15.5265 44.5834 17.7139 44.5834 20.4122H46.5834ZM43.9445 25.8327C45.5494 24.5738 46.5834 22.6135 46.5834 20.4122H44.5834C44.5834 21.9733 43.8525 23.363 42.7102 24.2591L43.9445 25.8327ZM50.0916 24.0459H43.3274V26.0459H50.0916V24.0459Z" fill="#274D62" fill-opacity="0.14" mask="url(#path-4-inside-1_101_2)"/>
<defs>
<linearGradient id="paint0_linear_101_2" x1="71.2973" y1="-9.90166" x2="129.553" y2="-6.57347" gradientUnits="userSpaceOnUse">
<stop stop-color="#FF9900"/>
<stop offset="1" stop-color="#E02727"/>
</linearGradient>
<linearGradient id="paint1_linear_101_2" x1="-2.70766" y1="-18.0659" x2="55.7622" y2="-15.8612" gradientUnits="userSpaceOnUse">
<stop stop-color="#FF9900"/>
<stop offset="1" stop-color="#E02727"/>
</linearGradient>
</defs>
</svg>
